<?xml version="1.0" encoding="UTF-8" standalone="no"?>
<!-- Created with Inkscape (http://www.inkscape.org/) -->

<svg
   xmlns:ns0="http://www.iki.fi/pav/software/textext/"
   xmlns:dc="http://purl.org/dc/elements/1.1/"
   xmlns:cc="http://creativecommons.org/ns#"
   xmlns:rdf="http://www.w3.org/1999/02/22-rdf-syntax-ns#"
   xmlns:svg="http://www.w3.org/2000/svg"
   xmlns="http://www.w3.org/2000/svg"
   xmlns:xlink="http://www.w3.org/1999/xlink"
   xmlns:sodipodi="http://sodipodi.sourceforge.net/DTD/sodipodi-0.dtd"
   xmlns:inkscape="http://www.inkscape.org/namespaces/inkscape"
   width="765"
   height="990"
   id="svg2"
   version="1.1"
   inkscape:version="0.91 r"
   sodipodi:docname="xz.svg">
  <sodipodi:namedview
     id="base"
     pagecolor="#ffffff"
     bordercolor="#666666"
     borderopacity="1.0"
     inkscape:pageopacity="0.0"
     inkscape:pageshadow="2"
     inkscape:zoom="0.24748737"
     inkscape:cx="2160.2967"
     inkscape:cy="-159.79108"
     inkscape:document-units="px"
     inkscape:current-layer="layer1"
     showgrid="false"
     inkscape:window-width="1301"
     inkscape:window-height="744"
     inkscape:window-x="1745"
     inkscape:window-y="24"
     inkscape:window-maximized="1"
     showborder="false" />
  <defs
     id="defs4">
    <marker
       inkscape:stockid="Arrow1Mend"
       orient="auto"
       refY="0.0"
       refX="0.0"
       id="Arrow1Mend"
       style="overflow:visible;">
      <path
         id="path5082"
         d="M 0.0,0.0 L 5.0,-5.0 L -12.5,0.0 L 5.0,5.0 L 0.0,0.0 z "
         style="fill-rule:evenodd;stroke:#000000;stroke-width:1.0pt;"
         transform="scale(0.4) rotate(180) translate(10,0)" />
    </marker>
    <marker
       inkscape:stockid="Arrow2Mend"
       orient="auto"
       refY="0"
       refX="0"
       id="Arrow2Mend"
       style="overflow:visible">
      <path
         inkscape:connector-curvature="0"
         id="path3854"
         style="fill-rule:evenodd;stroke-width:0.625;stroke-linejoin:round"
         d="M 8.7185878,4.0337352 -2.2072895,0.01601326 8.7185884,-4.0017078 c -1.7454984,2.3720609 -1.7354408,5.6174519 -6e-7,8.035443 z"
         transform="scale(-0.6,-0.6)" />
    </marker>
    <marker
       inkscape:stockid="Arrow2Mend"
       orient="auto"
       refY="0"
       refX="0"
       id="marker3102"
       style="overflow:visible">
      <path
         inkscape:connector-curvature="0"
         id="path3104"
         style="fill-rule:evenodd;stroke-width:0.625;stroke-linejoin:round"
         d="M 8.7185878,4.0337352 -2.2072895,0.01601326 8.7185884,-4.0017078 c -1.7454984,2.3720609 -1.7354408,5.6174519 -6e-7,8.035443 z"
         transform="scale(-0.6,-0.6)" />
    </marker>
    <marker
       inkscape:stockid="Arrow2Mend"
       orient="auto"
       refY="0"
       refX="0"
       id="Arrow2Mend-4"
       style="overflow:visible">
      <path
         inkscape:connector-curvature="0"
         id="path3854-8"
         style="fill-rule:evenodd;stroke-width:0.625;stroke-linejoin:round"
         d="M 8.7185878,4.0337352 -2.2072895,0.01601326 8.7185884,-4.0017078 c -1.7454984,2.3720609 -1.7354408,5.6174519 -6e-7,8.035443 z"
         transform="scale(-0.6,-0.6)" />
    </marker>
    <marker
       inkscape:stockid="Arrow2Mstart"
       orient="auto"
       refY="0"
       refX="0"
       id="Arrow2Mstart"
       style="overflow:visible">
      <path
         inkscape:connector-curvature="0"
         id="path3851"
         style="fill-rule:evenodd;stroke-width:0.625;stroke-linejoin:round"
         d="M 8.7185878,4.0337352 -2.2072895,0.01601326 8.7185884,-4.0017078 c -1.7454984,2.3720609 -1.7354408,5.6174519 -6e-7,8.035443 z"
         transform="scale(0.6,0.6)" />
    </marker>
    <marker
       inkscape:stockid="Arrow2Mend"
       orient="auto"
       refY="0"
       refX="0"
       id="marker3110"
       style="overflow:visible">
      <path
         inkscape:connector-curvature="0"
         id="path3112"
         style="fill-rule:evenodd;stroke-width:0.625;stroke-linejoin:round"
         d="M 8.7185878,4.0337352 -2.2072895,0.01601326 8.7185884,-4.0017078 c -1.7454984,2.3720609 -1.7354408,5.6174519 -6e-7,8.035443 z"
         transform="scale(-0.6,-0.6)" />
    </marker>
    <marker
       inkscape:stockid="Arrow1Mend"
       orient="auto"
       refY="0"
       refX="0"
       id="Arrow1Mend-0"
       style="overflow:visible">
      <path
         inkscape:connector-curvature="0"
         id="path5082-5"
         d="M 0,0 5,-5 -12.5,0 5,5 0,0 z"
         style="fill-rule:evenodd;stroke:#000000;stroke-width:1pt"
         transform="matrix(-0.4,0,0,-0.4,-4,0)" />
    </marker>
    <marker
       inkscape:stockid="Arrow1Mend"
       orient="auto"
       refY="0"
       refX="0"
       id="Arrow1Mend-8"
       style="overflow:visible">
      <path
         inkscape:connector-curvature="0"
         id="path5082-7"
         d="M 0,0 5,-5 -12.5,0 5,5 0,0 z"
         style="fill-rule:evenodd;stroke:#000000;stroke-width:1pt"
         transform="matrix(-0.4,0,0,-0.4,-4,0)" />
    </marker>
    <marker
       inkscape:stockid="Arrow1Mend"
       orient="auto"
       refY="0"
       refX="0"
       id="Arrow1Mend-87"
       style="overflow:visible">
      <path
         inkscape:connector-curvature="0"
         id="path5082-1"
         d="M 0,0 5,-5 -12.5,0 5,5 0,0 z"
         style="fill-rule:evenodd;stroke:#000000;stroke-width:1pt"
         transform="matrix(-0.4,0,0,-0.4,-4,0)" />
    </marker>
    <marker
       inkscape:stockid="Arrow1Mend"
       orient="auto"
       refY="0"
       refX="0"
       id="Arrow1Mend-3"
       style="overflow:visible">
      <path
         inkscape:connector-curvature="0"
         id="path5082-6"
         d="M 0,0 5,-5 -12.5,0 5,5 0,0 z"
         style="fill-rule:evenodd;stroke:#000000;stroke-width:1pt"
         transform="matrix(-0.4,0,0,-0.4,-4,0)" />
    </marker>
    <marker
       inkscape:stockid="Arrow1Mend"
       orient="auto"
       refY="0"
       refX="0"
       id="Arrow1Mend-4"
       style="overflow:visible">
      <path
         inkscape:connector-curvature="0"
         id="path5082-4"
         d="M 0,0 5,-5 -12.5,0 5,5 0,0 z"
         style="fill-rule:evenodd;stroke:#000000;stroke-width:1pt"
         transform="matrix(-0.4,0,0,-0.4,-4,0)" />
    </marker>
    <marker
       inkscape:stockid="Arrow1Mend"
       orient="auto"
       refY="0"
       refX="0"
       id="Arrow1Mend-37"
       style="overflow:visible">
      <path
         inkscape:connector-curvature="0"
         id="path5082-2"
         d="M 0,0 5,-5 -12.5,0 5,5 0,0 z"
         style="fill-rule:evenodd;stroke:#000000;stroke-width:1pt"
         transform="matrix(-0.4,0,0,-0.4,-4,0)" />
    </marker>
    <marker
       inkscape:stockid="Arrow1Mend"
       orient="auto"
       refY="0"
       refX="0"
       id="Arrow1Mend-1"
       style="overflow:visible">
      <path
         inkscape:connector-curvature="0"
         id="path5082-48"
         d="M 0,0 5,-5 -12.5,0 5,5 0,0 z"
         style="fill-rule:evenodd;stroke:#000000;stroke-width:1pt"
         transform="matrix(-0.4,0,0,-0.4,-4,0)" />
    </marker>
    <marker
       inkscape:stockid="Arrow1Mend"
       orient="auto"
       refY="0"
       refX="0"
       id="Arrow1Mend-5"
       style="overflow:visible">
      <path
         inkscape:connector-curvature="0"
         id="path5082-59"
         d="M 0,0 5,-5 -12.5,0 5,5 0,0 z"
         style="fill-rule:evenodd;stroke:#000000;stroke-width:1pt"
         transform="matrix(-0.4,0,0,-0.4,-4,0)" />
    </marker>
    <marker
       inkscape:stockid="Arrow1Mend"
       orient="auto"
       refY="0"
       refX="0"
       id="Arrow1Mend-80"
       style="overflow:visible">
      <path
         inkscape:connector-curvature="0"
         id="path5082-60"
         d="M 0,0 5,-5 -12.5,0 5,5 0,0 z"
         style="fill-rule:evenodd;stroke:#000000;stroke-width:1pt"
         transform="matrix(-0.4,0,0,-0.4,-4,0)" />
    </marker>
    <marker
       inkscape:stockid="Arrow1Mend"
       orient="auto"
       refY="0"
       refX="0"
       id="marker5669"
       style="overflow:visible">
      <path
         inkscape:connector-curvature="0"
         id="path5671"
         d="M 0,0 5,-5 -12.5,0 5,5 0,0 z"
         style="fill-rule:evenodd;stroke:#000000;stroke-width:1pt"
         transform="matrix(-0.4,0,0,-0.4,-4,0)" />
    </marker>
    <marker
       inkscape:stockid="Arrow1Mend"
       orient="auto"
       refY="0"
       refX="0"
       id="marker5673"
       style="overflow:visible">
      <path
         inkscape:connector-curvature="0"
         id="path5675"
         d="M 0,0 5,-5 -12.5,0 5,5 0,0 z"
         style="fill-rule:evenodd;stroke:#000000;stroke-width:1pt"
         transform="matrix(-0.4,0,0,-0.4,-4,0)" />
    </marker>
    <marker
       inkscape:stockid="Arrow1Mend"
       orient="auto"
       refY="0"
       refX="0"
       id="marker5677"
       style="overflow:visible">
      <path
         inkscape:connector-curvature="0"
         id="path5679"
         d="M 0,0 5,-5 -12.5,0 5,5 0,0 z"
         style="fill-rule:evenodd;stroke:#000000;stroke-width:1pt"
         transform="matrix(-0.4,0,0,-0.4,-4,0)" />
    </marker>
    <marker
       inkscape:stockid="Arrow1Mend"
       orient="auto"
       refY="0"
       refX="0"
       id="Arrow1Mend-84"
       style="overflow:visible">
      <path
         inkscape:connector-curvature="0"
         id="path5082-0"
         d="M 0,0 5,-5 -12.5,0 5,5 0,0 z"
         style="fill-rule:evenodd;stroke:#000000;stroke-width:1pt"
         transform="matrix(-0.4,0,0,-0.4,-4,0)" />
    </marker>
    <marker
       inkscape:stockid="Arrow1Mend"
       orient="auto"
       refY="0"
       refX="0"
       id="marker5669-1"
       style="overflow:visible">
      <path
         inkscape:connector-curvature="0"
         id="path5671-8"
         d="M 0,0 5,-5 -12.5,0 5,5 0,0 z"
         style="fill-rule:evenodd;stroke:#000000;stroke-width:1pt"
         transform="matrix(-0.4,0,0,-0.4,-4,0)" />
    </marker>
    <marker
       inkscape:stockid="Arrow1Mend"
       orient="auto"
       refY="0"
       refX="0"
       id="marker5673-8"
       style="overflow:visible">
      <path
         inkscape:connector-curvature="0"
         id="path5675-1"
         d="M 0,0 5,-5 -12.5,0 5,5 0,0 z"
         style="fill-rule:evenodd;stroke:#000000;stroke-width:1pt"
         transform="matrix(-0.4,0,0,-0.4,-4,0)" />
    </marker>
    <marker
       inkscape:stockid="Arrow1Mend"
       orient="auto"
       refY="0"
       refX="0"
       id="marker5677-4"
       style="overflow:visible">
      <path
         inkscape:connector-curvature="0"
         id="path5679-4"
         d="M 0,0 5,-5 -12.5,0 5,5 0,0 z"
         style="fill-rule:evenodd;stroke:#000000;stroke-width:1pt"
         transform="matrix(-0.4,0,0,-0.4,-4,0)" />
    </marker>
    <marker
       inkscape:stockid="Arrow1Mend"
       orient="auto"
       refY="0"
       refX="0"
       id="Arrow1Mend-46"
       style="overflow:visible">
      <path
         inkscape:connector-curvature="0"
         id="path5082-3"
         d="M 0,0 5,-5 -12.5,0 5,5 0,0 z"
         style="fill-rule:evenodd;stroke:#000000;stroke-width:1pt"
         transform="matrix(-0.4,0,0,-0.4,-4,0)" />
    </marker>
    <marker
       inkscape:stockid="Arrow1Mend"
       orient="auto"
       refY="0"
       refX="0"
       id="marker5669-2"
       style="overflow:visible">
      <path
         inkscape:connector-curvature="0"
         id="path5671-3"
         d="M 0,0 5,-5 -12.5,0 5,5 0,0 z"
         style="fill-rule:evenodd;stroke:#000000;stroke-width:1pt"
         transform="matrix(-0.4,0,0,-0.4,-4,0)" />
    </marker>
    <marker
       inkscape:stockid="Arrow1Mend"
       orient="auto"
       refY="0"
       refX="0"
       id="marker5673-83"
       style="overflow:visible">
      <path
         inkscape:connector-curvature="0"
         id="path5675-8"
         d="M 0,0 5,-5 -12.5,0 5,5 0,0 z"
         style="fill-rule:evenodd;stroke:#000000;stroke-width:1pt"
         transform="matrix(-0.4,0,0,-0.4,-4,0)" />
    </marker>
    <marker
       inkscape:stockid="Arrow1Mend"
       orient="auto"
       refY="0"
       refX="0"
       id="marker5677-8"
       style="overflow:visible">
      <path
         inkscape:connector-curvature="0"
         id="path5679-5"
         d="M 0,0 5,-5 -12.5,0 5,5 0,0 z"
         style="fill-rule:evenodd;stroke:#000000;stroke-width:1pt"
         transform="matrix(-0.4,0,0,-0.4,-4,0)" />
    </marker>
  </defs>
  <metadata
     id="metadata7">
    <rdf:RDF>
      <cc:Work
         rdf:about="">
        <dc:format>image/svg+xml</dc:format>
        <dc:type
           rdf:resource="http://purl.org/dc/dcmitype/StillImage" />
        <dc:title></dc:title>
      </cc:Work>
    </rdf:RDF>
  </metadata>
  <g
     inkscape:label="Layer 1"
     inkscape:groupmode="layer"
     id="layer1"
     transform="translate(0,-62.362183)">
    <text
       xml:space="preserve"
       style="font-size:40px;font-style:normal;font-weight:normal;line-height:125%;letter-spacing:0px;word-spacing:0px;fill:#000000;fill-opacity:1;stroke:none;font-family:Sans"
       x="346.02808"
       y="355.23477"
       id="text4786"
       sodipodi:linespacing="125%"><tspan
         sodipodi:role="line"
         id="tspan4788"
         x="346.02808"
         y="355.23477" /></text>
    <g
       id="g4716"
       transform="matrix(6.3161691,0,0,6.3161691,-1905.9247,-1868.1326)"
       inkscape:export-filename="/home/aaron/Documents/Carthage/seniorthesis/writing/seniorThesis/xz.png"
       inkscape:export-xdpi="90"
       inkscape:export-ydpi="90">
      <rect
         y="383.61188"
         x="417.61868"
         height="63.137161"
         width="63.137161"
         id="rect3803"
         style="fill:none;stroke:#000000;stroke-width:0.75548744;stroke-miterlimit:4;stroke-dasharray:none;stroke-dashoffset:0;stroke-opacity:1" />
      <path
         inkscape:connector-curvature="0"
         id="path4269-8"
         d="m 478.0485,391.16639 22.09182,0"
         style="fill:none;stroke:#000000;stroke-width:0.88566589;stroke-linecap:butt;stroke-linejoin:miter;stroke-miterlimit:4;stroke-dasharray:0.8856659, 0.8856659;stroke-dashoffset:0;stroke-opacity:1;marker-end:url(#Arrow1Mend)" />
      <path
         inkscape:connector-curvature="0"
         id="path4269-4-2"
         d="m 478.0485,431.23697 22.09182,0"
         style="fill:none;stroke:#000000;stroke-width:0.88566589;stroke-linecap:butt;stroke-linejoin:miter;stroke-miterlimit:4;stroke-dasharray:0.8856659, 0.8856659;stroke-dashoffset:0;stroke-opacity:1;marker-end:url(#Arrow1Mend)" />
      <path
         inkscape:connector-curvature="0"
         id="path4269-6-7"
         d="m 478.0485,399.20171 22.09182,0"
         style="fill:none;stroke:#000000;stroke-width:0.88566589;stroke-linecap:butt;stroke-linejoin:miter;stroke-miterlimit:4;stroke-dasharray:0.8856659, 0.8856659;stroke-dashoffset:0;stroke-opacity:1;marker-end:url(#Arrow1Mend)" />
      <path
         inkscape:connector-curvature="0"
         id="path4269-3-8"
         d="m 478.0485,439.27231 22.09182,0"
         style="fill:none;stroke:#000000;stroke-width:0.88566589;stroke-linecap:butt;stroke-linejoin:miter;stroke-miterlimit:4;stroke-dasharray:0.8856659, 0.8856659;stroke-dashoffset:0;stroke-opacity:1;marker-end:url(#Arrow1Mend)" />
      <path
         style="fill:none;fill-rule:evenodd;stroke:#000000;stroke-width:1;stroke-linecap:butt;stroke-linejoin:miter;stroke-miterlimit:4;stroke-dasharray:1, 1;stroke-dashoffset:0;stroke-opacity:1"
         d="m 480.71429,446.29075 23.21428,0 0,-62.5 -23.21428,0"
         id="path7293"
         inkscape:connector-curvature="0" />
      <g
         ns0:text="$\ndx\n$"
         ns0:preamble=""
         transform="matrix(1.3185665,0,0,1.3185665,148.80042,285.73672)"
         id="g7511">
        <defs
           id="defs7513">
          <g
             id="g7515">
            <symbol
               style="overflow:visible"
               overflow="visible"
               id="textext-52758a44-0">
              <path
                 inkscape:connector-curvature="0"
                 style="stroke:none"
                 d=""
                 id="path7518" />
            </symbol>
            <symbol
               style="overflow:visible"
               overflow="visible"
               id="textext-52758a44-1">
              <path
                 inkscape:connector-curvature="0"
                 style="stroke:none"
                 d="m 5.140625,-6.8125 c 0,0 0,-0.109375 -0.125,-0.109375 -0.15625,0 -1.09375,0.09375 -1.265625,0.109375 -0.078125,0.015625 -0.140625,0.0625 -0.140625,0.1875 0,0.125 0.09375,0.125 0.234375,0.125 0.484375,0 0.5,0.0625 0.5,0.171875 L 4.3125,-6.125 3.71875,-3.765625 C 3.53125,-4.140625 3.25,-4.40625 2.796875,-4.40625 c -1.15625,0 -2.390625,1.46875 -2.390625,2.921875 0,0.9375 0.546875,1.59375 1.3125,1.59375 0.203125,0 0.703125,-0.046875 1.296875,-0.75 0.078125,0.421875 0.4375,0.75 0.90625,0.75 0.359375,0 0.578125,-0.234375 0.75,-0.546875 0.15625,-0.359375 0.296875,-0.96875 0.296875,-0.984375 0,-0.109375 -0.09375,-0.109375 -0.125,-0.109375 -0.09375,0 -0.109375,0.046875 -0.140625,0.1875 -0.171875,0.640625 -0.34375,1.234375 -0.75,1.234375 -0.28125,0 -0.296875,-0.265625 -0.296875,-0.453125 0,-0.25 0.015625,-0.3125 0.046875,-0.484375 z m -2.0625,5.625 C 3.015625,-1 3.015625,-0.984375 2.875,-0.8125 2.4375,-0.265625 2.03125,-0.109375 1.75,-0.109375 c -0.5,0 -0.640625,-0.546875 -0.640625,-0.9375 0,-0.5 0.3125,-1.71875 0.546875,-2.1875 0.3125,-0.578125 0.75,-0.953125 1.15625,-0.953125 0.640625,0 0.78125,0.8125 0.78125,0.875 0,0.0625 -0.015625,0.125 -0.03125,0.171875 z m 0,0"
                 id="path7521" />
            </symbol>
            <symbol
               style="overflow:visible"
               overflow="visible"
               id="textext-52758a44-2">
              <path
                 inkscape:connector-curvature="0"
                 style="stroke:none"
                 d="M 3.328125,-3.015625 C 3.390625,-3.265625 3.625,-4.1875 4.3125,-4.1875 c 0.046875,0 0.296875,0 0.5,0.125 C 4.53125,-4 4.34375,-3.765625 4.34375,-3.515625 c 0,0.15625 0.109375,0.34375 0.375,0.34375 0.21875,0 0.53125,-0.171875 0.53125,-0.578125 0,-0.515625 -0.578125,-0.65625 -0.921875,-0.65625 -0.578125,0 -0.921875,0.53125 -1.046875,0.75 -0.25,-0.65625 -0.78125,-0.75 -1.078125,-0.75 -1.03125,0 -1.609375,1.28125 -1.609375,1.53125 0,0.109375 0.109375,0.109375 0.125,0.109375 0.078125,0 0.109375,-0.03125 0.125,-0.109375 0.34375,-1.0625 1,-1.3125 1.34375,-1.3125 0.1875,0 0.53125,0.09375 0.53125,0.671875 0,0.3125 -0.171875,0.96875 -0.53125,2.375 -0.15625,0.609375 -0.515625,1.03125 -0.953125,1.03125 -0.0625,0 -0.28125,0 -0.5,-0.125 0.25,-0.0625 0.46875,-0.265625 0.46875,-0.546875 0,-0.265625 -0.21875,-0.34375 -0.359375,-0.34375 -0.3125,0 -0.546875,0.25 -0.546875,0.578125 0,0.453125 0.484375,0.65625 0.921875,0.65625 0.671875,0 1.03125,-0.703125 1.046875,-0.75 0.125,0.359375 0.484375,0.75 1.078125,0.75 1.03125,0 1.59375,-1.28125 1.59375,-1.53125 0,-0.109375 -0.078125,-0.109375 -0.109375,-0.109375 -0.09375,0 -0.109375,0.046875 -0.140625,0.109375 -0.328125,1.078125 -1,1.3125 -1.3125,1.3125 -0.390625,0 -0.546875,-0.3125 -0.546875,-0.65625 0,-0.21875 0.046875,-0.4375 0.15625,-0.875 z m 0,0"
                 id="path7524" />
            </symbol>
          </g>
        </defs>
        <g
           id="textext-52758a44-3">
          <g
             style="fill:#000000;fill-opacity:1"
             id="g7527">
            <use
               height="100%"
               width="100%"
               xlink:href="#textext-52758a44-1"
               x="223.43201"
               y="134.765"
               id="use7529" />
            <use
               height="100%"
               width="100%"
               xlink:href="#textext-52758a44-2"
               x="228.61754"
               y="134.765"
               id="use7531" />
          </g>
        </g>
      </g>
      <g
         id="g7956"
         transform="matrix(1.3185665,0,0,1.3185665,103.95652,239.87122)"
         ns0:preamble=""
         ns0:text="$\ndz\n$">
        <defs
           id="defs7958">
          <g
             id="g7960">
            <symbol
               id="textext-df4d285a-0"
               overflow="visible"
               style="overflow:visible">
              <path
                 id="path7963"
                 d=""
                 style="stroke:none"
                 inkscape:connector-curvature="0" />
            </symbol>
            <symbol
               id="textext-df4d285a-1"
               overflow="visible"
               style="overflow:visible">
              <path
                 id="path7966"
                 d="m 5.140625,-6.8125 c 0,0 0,-0.109375 -0.125,-0.109375 -0.15625,0 -1.09375,0.09375 -1.265625,0.109375 -0.078125,0.015625 -0.140625,0.0625 -0.140625,0.1875 0,0.125 0.09375,0.125 0.234375,0.125 0.484375,0 0.5,0.0625 0.5,0.171875 L 4.3125,-6.125 3.71875,-3.765625 C 3.53125,-4.140625 3.25,-4.40625 2.796875,-4.40625 c -1.15625,0 -2.390625,1.46875 -2.390625,2.921875 0,0.9375 0.546875,1.59375 1.3125,1.59375 0.203125,0 0.703125,-0.046875 1.296875,-0.75 0.078125,0.421875 0.4375,0.75 0.90625,0.75 0.359375,0 0.578125,-0.234375 0.75,-0.546875 0.15625,-0.359375 0.296875,-0.96875 0.296875,-0.984375 0,-0.109375 -0.09375,-0.109375 -0.125,-0.109375 -0.09375,0 -0.109375,0.046875 -0.140625,0.1875 -0.171875,0.640625 -0.34375,1.234375 -0.75,1.234375 -0.28125,0 -0.296875,-0.265625 -0.296875,-0.453125 0,-0.25 0.015625,-0.3125 0.046875,-0.484375 z m -2.0625,5.625 C 3.015625,-1 3.015625,-0.984375 2.875,-0.8125 2.4375,-0.265625 2.03125,-0.109375 1.75,-0.109375 c -0.5,0 -0.640625,-0.546875 -0.640625,-0.9375 0,-0.5 0.3125,-1.71875 0.546875,-2.1875 0.3125,-0.578125 0.75,-0.953125 1.15625,-0.953125 0.640625,0 0.78125,0.8125 0.78125,0.875 0,0.0625 -0.015625,0.125 -0.03125,0.171875 z m 0,0"
                 style="stroke:none"
                 inkscape:connector-curvature="0" />
            </symbol>
            <symbol
               id="textext-df4d285a-2"
               overflow="visible"
               style="overflow:visible">
              <path
                 id="path7969"
                 d="m 1.328125,-0.828125 c 0.53125,-0.578125 0.828125,-0.828125 1.1875,-1.140625 0,0 0.609375,-0.53125 0.96875,-0.890625 C 4.4375,-3.78125 4.65625,-4.265625 4.65625,-4.3125 c 0,-0.09375 -0.09375,-0.09375 -0.109375,-0.09375 -0.078125,0 -0.09375,0.015625 -0.15625,0.109375 -0.296875,0.484375 -0.5,0.640625 -0.734375,0.640625 -0.25,0 -0.359375,-0.15625 -0.515625,-0.328125 -0.1875,-0.21875 -0.359375,-0.421875 -0.6875,-0.421875 -0.75,0 -1.203125,0.921875 -1.203125,1.140625 0,0.046875 0.03125,0.109375 0.109375,0.109375 0.09375,0 0.109375,-0.046875 0.140625,-0.109375 0.1875,-0.46875 0.765625,-0.46875 0.84375,-0.46875 0.203125,0 0.390625,0.0625 0.625,0.140625 0.40625,0.15625 0.515625,0.15625 0.765625,0.15625 -0.359375,0.421875 -1.1875,1.140625 -1.375,1.296875 l -0.90625,0.84375 C 0.78125,-0.625 0.421875,-0.0625 0.421875,0.015625 c 0,0.09375 0.109375,0.09375 0.125,0.09375 0.078125,0 0.09375,-0.015625 0.15625,-0.125 0.234375,-0.359375 0.53125,-0.625 0.859375,-0.625 0.21875,0 0.328125,0.09375 0.578125,0.375 0.15625,0.21875 0.34375,0.375 0.625,0.375 1,0 1.578125,-1.265625 1.578125,-1.53125 0,-0.046875 -0.046875,-0.109375 -0.125,-0.109375 -0.09375,0 -0.109375,0.0625 -0.140625,0.140625 C 3.84375,-0.75 3.203125,-0.5625 2.875,-0.5625 c -0.1875,0 -0.375,-0.0625 -0.578125,-0.125 -0.34375,-0.125 -0.5,-0.171875 -0.703125,-0.171875 -0.015625,0 -0.171875,0 -0.265625,0.03125 z m 0,0"
                 style="stroke:none"
                 inkscape:connector-curvature="0" />
            </symbol>
          </g>
        </defs>
        <g
           id="textext-df4d285a-3">
          <g
             id="g7972"
             style="fill:#000000;fill-opacity:1">
            <use
               id="use7974"
               y="134.765"
               x="223.43201"
               xlink:href="#textext-df4d285a-1"
               width="100%"
               height="100%" />
            <use
               id="use7976"
               y="134.765"
               x="228.61754"
               xlink:href="#textext-df4d285a-2"
               width="100%"
               height="100%" />
          </g>
        </g>
      </g>
      <g
         id="g8832"
         transform="matrix(1.3185665,0,0,1.3185665,139.73918,237.48776)"
         ns0:preamble=""
         ns0:text="$\n\\phi_{dx,dz}\n$">
        <defs
           id="defs8834">
          <g
             id="g8836">
            <symbol
               id="textext-d2c91f02-0"
               overflow="visible"
               style="overflow:visible">
              <path
                 id="path8839"
                 d=""
                 style="stroke:none"
                 inkscape:connector-curvature="0" />
            </symbol>
            <symbol
               id="textext-d2c91f02-1"
               overflow="visible"
               style="overflow:visible">
              <path
                 id="path8842"
                 d="m 4.359375,-6.671875 c 0,-0.03125 0.03125,-0.140625 0.03125,-0.140625 0,-0.015625 0,-0.109375 -0.125,-0.109375 -0.09375,0 -0.109375,0.03125 -0.15625,0.203125 L 3.53125,-4.421875 c -1.578125,0.0625 -3.046875,1.375 -3.046875,2.734375 0,0.953125 0.703125,1.734375 1.921875,1.8125 C 2.328125,0.421875 2.25,0.75 2.171875,1.0625 c -0.125,0.46875 -0.21875,0.84375 -0.21875,0.875 0,0.09375 0.078125,0.109375 0.125,0.109375 C 2.125,2.046875 2.140625,2.03125 2.171875,2 2.1875,1.984375 2.25,1.75 2.28125,1.609375 L 2.65625,0.125 c 1.609375,-0.0625 3.0625,-1.40625 3.0625,-2.734375 0,-0.796875 -0.53125,-1.703125 -1.921875,-1.8125 z m -1.90625,6.578125 c -0.59375,-0.03125 -1.3125,-0.390625 -1.3125,-1.375 0,-1.203125 0.859375,-2.59375 2.34375,-2.734375 z m 1.28125,-4.109375 c 0.765625,0.046875 1.328125,0.5 1.328125,1.375 0,1.1875 -0.859375,2.609375 -2.34375,2.734375 z m 0,0"
                 style="stroke:none"
                 inkscape:connector-curvature="0" />
            </symbol>
            <symbol
               id="textext-d2c91f02-2"
               overflow="visible"
               style="overflow:visible">
              <path
                 id="path8845"
                 d=""
                 style="stroke:none"
                 inkscape:connector-curvature="0" />
            </symbol>
            <symbol
               id="textext-d2c91f02-3"
               overflow="visible"
               style="overflow:visible">
              <path
                 id="path8848"
                 d="M 3.984375,-4.625 C 3.984375,-4.640625 4,-4.734375 4,-4.734375 4,-4.78125 3.984375,-4.84375 3.890625,-4.84375 3.75,-4.84375 3.171875,-4.78125 3,-4.765625 c -0.046875,0 -0.15625,0.015625 -0.15625,0.15625 0,0.09375 0.109375,0.09375 0.1875,0.09375 0.328125,0 0.328125,0.0625 0.328125,0.109375 0,0.046875 0,0.09375 -0.015625,0.15625 L 2.9375,-2.65625 c -0.140625,-0.234375 -0.375,-0.421875 -0.71875,-0.421875 -0.890625,0 -1.796875,0.984375 -1.796875,1.984375 0,0.6875 0.453125,1.15625 1.0625,1.15625 0.375,0 0.703125,-0.203125 0.984375,-0.484375 C 2.59375,0 3,0.0625 3.1875,0.0625 c 0.25,0 0.421875,-0.140625 0.546875,-0.359375 0.15625,-0.28125 0.25,-0.671875 0.25,-0.703125 0,-0.09375 -0.09375,-0.09375 -0.109375,-0.09375 -0.109375,0 -0.109375,0.03125 -0.15625,0.21875 C 3.625,-0.53125 3.5,-0.125 3.203125,-0.125 3.03125,-0.125 2.96875,-0.28125 2.96875,-0.46875 c 0,-0.125 0.015625,-0.1875 0.046875,-0.28125 z M 2.5,-0.875 C 2.453125,-0.671875 2.296875,-0.53125 2.140625,-0.40625 2.078125,-0.34375 1.796875,-0.125 1.5,-0.125 c -0.265625,0 -0.515625,-0.1875 -0.515625,-0.671875 0,-0.375 0.203125,-1.140625 0.375,-1.421875 0.3125,-0.5625 0.671875,-0.65625 0.859375,-0.65625 0.484375,0 0.625,0.53125 0.625,0.609375 0,0.015625 -0.015625,0.078125 -0.015625,0.09375 z m 0,0"
                 style="stroke:none"
                 inkscape:connector-curvature="0" />
            </symbol>
            <symbol
               id="textext-d2c91f02-4"
               overflow="visible"
               style="overflow:visible">
              <path
                 id="path8851"
                 d="M 1.734375,-0.734375 C 1.671875,-0.5 1.4375,-0.125 1.078125,-0.125 c -0.015625,0 -0.234375,0 -0.375,-0.09375 0.28125,-0.09375 0.3125,-0.34375 0.3125,-0.390625 0,-0.15625 -0.125,-0.25 -0.28125,-0.25 -0.203125,0 -0.40625,0.15625 -0.40625,0.421875 0,0.34375 0.390625,0.5 0.734375,0.5 0.328125,0 0.609375,-0.1875 0.78125,-0.484375 C 2.015625,-0.0625 2.390625,0.0625 2.671875,0.0625 c 0.8125,0 1.234375,-0.859375 1.234375,-1.0625 0,-0.09375 -0.09375,-0.09375 -0.109375,-0.09375 -0.109375,0 -0.109375,0.046875 -0.140625,0.125 -0.140625,0.484375 -0.5625,0.84375 -0.953125,0.84375 -0.28125,0 -0.421875,-0.1875 -0.421875,-0.453125 0,-0.1875 0.171875,-0.8125 0.359375,-1.59375 C 2.78125,-2.703125 3.09375,-2.875 3.328125,-2.875 c 0.015625,0 0.21875,0 0.375,0.09375 -0.21875,0.0625 -0.3125,0.265625 -0.3125,0.390625 0,0.140625 0.125,0.25 0.28125,0.25 0.15625,0 0.390625,-0.125 0.390625,-0.421875 0,-0.390625 -0.453125,-0.515625 -0.71875,-0.515625 -0.359375,0 -0.640625,0.234375 -0.78125,0.5 -0.125,-0.28125 -0.453125,-0.5 -0.84375,-0.5 C 0.9375,-3.078125 0.5,-2.21875 0.5,-2 c 0,0.078125 0.09375,0.078125 0.109375,0.078125 0.09375,0 0.09375,-0.015625 0.140625,-0.109375 C 0.921875,-2.578125 1.359375,-2.875 1.703125,-2.875 1.9375,-2.875 2.125,-2.75 2.125,-2.421875 2.125,-2.28125 2.03125,-1.9375 1.96875,-1.6875 Z m 0,0"
                 style="stroke:none"
                 inkscape:connector-curvature="0" />
            </symbol>
            <symbol
               id="textext-d2c91f02-5"
               overflow="visible"
               style="overflow:visible">
              <path
                 id="path8854"
                 d="m 1.46875,-0.109375 c 0,0.375 -0.0625,0.828125 -0.546875,1.265625 C 0.90625,1.1875 0.875,1.21875 0.875,1.25 c 0,0.046875 0.0625,0.09375 0.09375,0.09375 0.109375,0 0.703125,-0.5625 0.703125,-1.390625 0,-0.421875 -0.171875,-0.75 -0.5,-0.75 -0.21875,0 -0.390625,0.171875 -0.390625,0.390625 C 0.78125,-0.1875 0.9375,0 1.1875,0 1.359375,0 1.46875,-0.109375 1.46875,-0.109375 Z m 0,0"
                 style="stroke:none"
                 inkscape:connector-curvature="0" />
            </symbol>
            <symbol
               id="textext-d2c91f02-6"
               overflow="visible"
               style="overflow:visible">
              <path
                 id="path8857"
                 d="m 1.171875,-0.609375 c 0.1875,-0.1875 0.3125,-0.3125 0.890625,-0.796875 0.15625,-0.109375 0.671875,-0.53125 0.875,-0.71875 0.421875,-0.421875 0.6875,-0.78125 0.6875,-0.859375 0,-0.09375 -0.078125,-0.09375 -0.109375,-0.09375 -0.0625,0 -0.09375,0.015625 -0.125,0.078125 -0.21875,0.3125 -0.359375,0.421875 -0.53125,0.421875 -0.078125,0 -0.1875,0 -0.390625,-0.203125 -0.234375,-0.25 -0.390625,-0.296875 -0.546875,-0.296875 -0.5625,0 -0.9375,0.609375 -0.9375,0.8125 0,0.078125 0.0625,0.09375 0.109375,0.09375 0.09375,0 0.109375,-0.015625 0.125,-0.09375 0.109375,-0.25 0.5,-0.265625 0.609375,-0.265625 0.171875,0 0.34375,0.046875 0.4375,0.0625 0.390625,0.078125 0.4375,0.078125 0.609375,0.078125 -0.171875,0.203125 -0.296875,0.328125 -0.96875,0.84375 -0.546875,0.4375 -0.734375,0.609375 -0.859375,0.75 -0.421875,0.40625 -0.625,0.71875 -0.625,0.78125 0,0.078125 0.09375,0.078125 0.125,0.078125 0.0625,0 0.078125,0 0.109375,-0.0625 0.1875,-0.265625 0.40625,-0.421875 0.640625,-0.421875 0.09375,0 0.1875,0 0.375,0.171875 0.21875,0.21875 0.359375,0.3125 0.59375,0.3125 C 3,0.0625 3.46875,-0.78125 3.46875,-1.015625 3.46875,-1.09375 3.390625,-1.09375 3.359375,-1.09375 3.265625,-1.09375 3.25,-1.0625 3.21875,-0.984375 3.09375,-0.640625 2.6875,-0.46875 2.34375,-0.46875 2.1875,-0.46875 2,-0.515625 1.828125,-0.546875 1.515625,-0.625 1.453125,-0.625 1.328125,-0.625 c -0.015625,0 -0.109375,0 -0.15625,0.015625 z m 0,0"
                 style="stroke:none"
                 inkscape:connector-curvature="0" />
            </symbol>
          </g>
        </defs>
        <g
           id="textext-d2c91f02-7">
          <g
             id="g8860"
             style="fill:#000000;fill-opacity:1">
            <use
               id="use8862"
               y="134.765"
               x="223.43201"
               xlink:href="#textext-d2c91f02-1"
               width="100%"
               height="100%" />
          </g>
          <g
             id="g8864"
             style="fill:#000000;fill-opacity:1">
            <use
               id="use8866"
               y="136.259"
               x="229.368"
               xlink:href="#textext-d2c91f02-3"
               width="100%"
               height="100%" />
            <use
               id="use8868"
               y="136.259"
               x="233.51532"
               xlink:href="#textext-d2c91f02-4"
               width="100%"
               height="100%" />
            <use
               id="use8870"
               y="136.259"
               x="238.03294"
               xlink:href="#textext-d2c91f02-5"
               width="100%"
               height="100%" />
            <use
               id="use8872"
               y="136.259"
               x="240.39915"
               xlink:href="#textext-d2c91f02-3"
               width="100%"
               height="100%" />
            <use
               id="use8874"
               y="136.259"
               x="244.54648"
               xlink:href="#textext-d2c91f02-6"
               width="100%"
               height="100%" />
          </g>
        </g>
      </g>
      <g
         transform="translate(-20,0)"
         id="g12490">
        <path
           style="fill:none;stroke:#000000;stroke-width:0.92392004;stroke-linecap:butt;stroke-linejoin:miter;stroke-miterlimit:4;stroke-dasharray:none;stroke-opacity:1;marker-start:url(#Arrow2Mstart);marker-end:url(#Arrow2Mend-4)"
           d="m 418.03712,492.80787 -42.85714,0 0,-37.5"
           id="path4375"
           inkscape:connector-curvature="0" />
        <g
           ns0:text="$\nx\n$"
           ns0:preamble=""
           transform="matrix(1.3185665,0,0,1.3185665,125.77654,320.22836)"
           id="g11536">
          <defs
             id="defs11538">
            <g
               id="g11540">
              <symbol
                 style="overflow:visible"
                 overflow="visible"
                 id="textext-746cddd4-0">
                <path
                   inkscape:connector-curvature="0"
                   style="stroke:none"
                   d=""
                   id="path11543" />
              </symbol>
              <symbol
                 style="overflow:visible"
                 overflow="visible"
                 id="textext-746cddd4-1">
                <path
                   inkscape:connector-curvature="0"
                   style="stroke:none"
                   d="M 3.328125,-3.015625 C 3.390625,-3.265625 3.625,-4.1875 4.3125,-4.1875 c 0.046875,0 0.296875,0 0.5,0.125 C 4.53125,-4 4.34375,-3.765625 4.34375,-3.515625 c 0,0.15625 0.109375,0.34375 0.375,0.34375 0.21875,0 0.53125,-0.171875 0.53125,-0.578125 0,-0.515625 -0.578125,-0.65625 -0.921875,-0.65625 -0.578125,0 -0.921875,0.53125 -1.046875,0.75 -0.25,-0.65625 -0.78125,-0.75 -1.078125,-0.75 -1.03125,0 -1.609375,1.28125 -1.609375,1.53125 0,0.109375 0.109375,0.109375 0.125,0.109375 0.078125,0 0.109375,-0.03125 0.125,-0.109375 0.34375,-1.0625 1,-1.3125 1.34375,-1.3125 0.1875,0 0.53125,0.09375 0.53125,0.671875 0,0.3125 -0.171875,0.96875 -0.53125,2.375 -0.15625,0.609375 -0.515625,1.03125 -0.953125,1.03125 -0.0625,0 -0.28125,0 -0.5,-0.125 0.25,-0.0625 0.46875,-0.265625 0.46875,-0.546875 0,-0.265625 -0.21875,-0.34375 -0.359375,-0.34375 -0.3125,0 -0.546875,0.25 -0.546875,0.578125 0,0.453125 0.484375,0.65625 0.921875,0.65625 0.671875,0 1.03125,-0.703125 1.046875,-0.75 0.125,0.359375 0.484375,0.75 1.078125,0.75 1.03125,0 1.59375,-1.28125 1.59375,-1.53125 0,-0.109375 -0.078125,-0.109375 -0.109375,-0.109375 -0.09375,0 -0.109375,0.046875 -0.140625,0.109375 -0.328125,1.078125 -1,1.3125 -1.3125,1.3125 -0.390625,0 -0.546875,-0.3125 -0.546875,-0.65625 0,-0.21875 0.046875,-0.4375 0.15625,-0.875 z m 0,0"
                   id="path11546" />
              </symbol>
            </g>
          </defs>
          <g
             id="textext-746cddd4-2">
            <g
               style="fill:#000000;fill-opacity:1"
               id="g11549">
              <use
                 height="100%"
                 width="100%"
                 xlink:href="#textext-746cddd4-1"
                 x="223.43201"
                 y="134.765"
                 id="use11551" />
            </g>
          </g>
        </g>
        <g
           id="g12170"
           transform="matrix(1.3185665,0,0,1.3185665,73.276542,272.37122)"
           ns0:preamble=""
           ns0:text="$\nz\n$">
          <defs
             id="defs12172">
            <g
               id="g12174">
              <symbol
                 id="textext-eb92a1db-0"
                 overflow="visible"
                 style="overflow:visible">
                <path
                   id="path12177"
                   d=""
                   style="stroke:none"
                   inkscape:connector-curvature="0" />
              </symbol>
              <symbol
                 id="textext-eb92a1db-1"
                 overflow="visible"
                 style="overflow:visible">
                <path
                   id="path12180"
                   d="m 1.328125,-0.828125 c 0.53125,-0.578125 0.828125,-0.828125 1.1875,-1.140625 0,0 0.609375,-0.53125 0.96875,-0.890625 C 4.4375,-3.78125 4.65625,-4.265625 4.65625,-4.3125 c 0,-0.09375 -0.09375,-0.09375 -0.109375,-0.09375 -0.078125,0 -0.09375,0.015625 -0.15625,0.109375 -0.296875,0.484375 -0.5,0.640625 -0.734375,0.640625 -0.25,0 -0.359375,-0.15625 -0.515625,-0.328125 -0.1875,-0.21875 -0.359375,-0.421875 -0.6875,-0.421875 -0.75,0 -1.203125,0.921875 -1.203125,1.140625 0,0.046875 0.03125,0.109375 0.109375,0.109375 0.09375,0 0.109375,-0.046875 0.140625,-0.109375 0.1875,-0.46875 0.765625,-0.46875 0.84375,-0.46875 0.203125,0 0.390625,0.0625 0.625,0.140625 0.40625,0.15625 0.515625,0.15625 0.765625,0.15625 -0.359375,0.421875 -1.1875,1.140625 -1.375,1.296875 l -0.90625,0.84375 C 0.78125,-0.625 0.421875,-0.0625 0.421875,0.015625 c 0,0.09375 0.109375,0.09375 0.125,0.09375 0.078125,0 0.09375,-0.015625 0.15625,-0.125 0.234375,-0.359375 0.53125,-0.625 0.859375,-0.625 0.21875,0 0.328125,0.09375 0.578125,0.375 0.15625,0.21875 0.34375,0.375 0.625,0.375 1,0 1.578125,-1.265625 1.578125,-1.53125 0,-0.046875 -0.046875,-0.109375 -0.125,-0.109375 -0.09375,0 -0.109375,0.0625 -0.140625,0.140625 C 3.84375,-0.75 3.203125,-0.5625 2.875,-0.5625 c -0.1875,0 -0.375,-0.0625 -0.578125,-0.125 -0.34375,-0.125 -0.5,-0.171875 -0.703125,-0.171875 -0.015625,0 -0.171875,0 -0.265625,0.03125 z m 0,0"
                   style="stroke:none"
                   inkscape:connector-curvature="0" />
              </symbol>
            </g>
          </defs>
          <g
             id="textext-eb92a1db-2">
            <g
               id="g12183"
               style="fill:#000000;fill-opacity:1">
              <use
                 id="use12185"
                 y="134.765"
                 x="223.43201"
                 xlink:href="#textext-eb92a1db-1"
                 width="100%"
                 height="100%" />
            </g>
          </g>
        </g>
      </g>
      <g
         ns0:text="$\n\\oint_{S1} \\phi \\textbf{V} \\cdot  \\hat{n} dS\n$"
         ns0:preamble=""
         transform="matrix(1.3036845,0,0,1.3036845,218.44737,240.40693)"
         id="g13688">
        <defs
           id="defs13690">
          <g
             id="g13692">
            <symbol
               style="overflow:visible"
               overflow="visible"
               id="textext-0d179418-0">
              <path
                 inkscape:connector-curvature="0"
                 style="stroke:none"
                 d=""
                 id="path13695" />
            </symbol>
            <symbol
               style="overflow:visible"
               overflow="visible"
               id="textext-0d179418-1">
              <path
                 inkscape:connector-curvature="0"
                 style="stroke:none"
                 d="M 3.578125,7.390625 C 4.671875,7.234375 5.25,6.359375 5.25,5.546875 5.25,4.8125 4.796875,4.046875 3.953125,3.765625 4.015625,2.71875 4.0625,2.359375 4.0625,2.15625 c 0.109375,-1.09375 0.25,-1.9375 0.921875,-1.9375 0.09375,0 0.40625,0.015625 0.625,0.203125 C 5.328125,0.46875 5.25,0.703125 5.25,0.84375 5.25,1.125 5.46875,1.25 5.65625,1.25 5.859375,1.25 6.078125,1.125 6.078125,0.828125 6.078125,0.34375 5.578125,0 4.96875,0 4.171875,0 3.796875,0.671875 3.59375,1.25 3.46875,1.640625 3.40625,1.953125 3.1875,3.671875 2.109375,3.84375 1.53125,4.71875 1.53125,5.53125 c 0,0.734375 0.4375,1.5 1.296875,1.78125 C 2.75,8.328125 2.71875,8.65625 2.703125,8.859375 c -0.09375,1.078125 -0.28125,2 -1.046875,2 -0.125,0 -0.4375,-0.03125 -0.640625,-0.21875 0.296875,-0.03125 0.375,-0.265625 0.375,-0.40625 0,-0.28125 -0.21875,-0.421875 -0.40625,-0.421875 -0.203125,0 -0.421875,0.140625 -0.421875,0.4375 0,0.46875 0.5,0.828125 1.09375,0.828125 C 2.4375,11.078125 2.875,10.484375 3.125,9.875 3.34375,9.3125 3.421875,8.75 3.578125,7.390625 Z m -0.734375,-0.5 C 2.375,6.703125 1.921875,6.21875 1.921875,5.53125 c 0,-0.671875 0.5,-1.296875 1.203125,-1.4375 z M 3.921875,4.171875 C 4.4375,4.390625 4.84375,4.90625 4.84375,5.53125 c 0,0.71875 -0.515625,1.3125 -1.203125,1.453125 z m 0,0"
                 id="path13698" />
            </symbol>
            <symbol
               style="overflow:visible"
               overflow="visible"
               id="textext-0d179418-2">
              <path
                 inkscape:connector-curvature="0"
                 style="stroke:none"
                 d=""
                 id="path13701" />
            </symbol>
            <symbol
               style="overflow:visible"
               overflow="visible"
               id="textext-0d179418-3">
              <path
                 inkscape:connector-curvature="0"
                 style="stroke:none"
                 d="m 4.953125,-4.8125 c 0,-0.03125 -0.03125,-0.09375 -0.09375,-0.09375 -0.046875,0 -0.046875,0.015625 -0.140625,0.109375 L 4.375,-4.40625 c -0.265625,-0.375 -0.703125,-0.5 -1.125,-0.5 -0.984375,0 -1.859375,0.796875 -1.859375,1.609375 0,0.09375 0.03125,0.375 0.234375,0.640625 0.234375,0.265625 0.5,0.328125 0.96875,0.453125 0.140625,0.03125 0.484375,0.109375 0.59375,0.140625 0.21875,0.046875 0.640625,0.203125 0.640625,0.71875 0,0.5625 -0.59375,1.234375 -1.375,1.234375 -0.625,0 -1.359375,-0.21875 -1.359375,-0.984375 0,-0.078125 0.015625,-0.234375 0.046875,-0.359375 0,-0.03125 0,-0.03125 0,-0.03125 0,-0.09375 -0.078125,-0.09375 -0.109375,-0.09375 -0.09375,0 -0.109375,0.015625 -0.125,0.140625 l -0.359375,1.390625 c -0.015625,0.03125 -0.03125,0.0625 -0.03125,0.109375 0,0.03125 0.03125,0.078125 0.109375,0.078125 0.03125,0 0.046875,-0.015625 0.140625,-0.09375 0.078125,-0.09375 0.25,-0.3125 0.328125,-0.390625 C 1.46875,0.0625 2,0.140625 2.421875,0.140625 c 1.0625,0 1.90625,-0.90625 1.90625,-1.734375 0,-0.296875 -0.125,-0.578125 -0.28125,-0.734375 -0.234375,-0.25 -0.34375,-0.28125 -1.25,-0.5 C 2.65625,-2.859375 2.421875,-2.90625 2.359375,-2.9375 2.1875,-3 1.890625,-3.171875 1.890625,-3.5625 c 0,-0.5625 0.625,-1.109375 1.34375,-1.109375 0.765625,0 1.125,0.421875 1.125,1.078125 0,0.09375 -0.03125,0.25 -0.03125,0.3125 0,0.109375 0.078125,0.109375 0.125,0.109375 0.09375,0 0.109375,-0.046875 0.125,-0.15625 z m 0,0"
                 id="path13704" />
            </symbol>
            <symbol
               style="overflow:visible"
               overflow="visible"
               id="textext-0d179418-4">
              <path
                 inkscape:connector-curvature="0"
                 style="stroke:none"
                 d=""
                 id="path13707" />
            </symbol>
            <symbol
               style="overflow:visible"
               overflow="visible"
               id="textext-0d179418-5">
              <path
                 inkscape:connector-curvature="0"
                 style="stroke:none"
                 d="m 2.328125,-4.4375 c 0,-0.1875 0,-0.1875 -0.203125,-0.1875 -0.453125,0.4375 -1.078125,0.4375 -1.359375,0.4375 l 0,0.25 c 0.15625,0 0.625,0 1,-0.1875 l 0,3.546875 c 0,0.234375 0,0.328125 -0.6875,0.328125 l -0.265625,0 0,0.25 c 0.125,0 0.984375,-0.03125 1.234375,-0.03125 0.21875,0 1.09375,0.03125 1.25,0.03125 l 0,-0.25 -0.265625,0 c -0.703125,0 -0.703125,-0.09375 -0.703125,-0.328125 z m 0,0"
                 id="path13710" />
            </symbol>
            <symbol
               style="overflow:visible"
               overflow="visible"
               id="textext-0d179418-6">
              <path
                 inkscape:connector-curvature="0"
                 style="stroke:none"
                 d=""
                 id="path13713" />
            </symbol>
            <symbol
               style="overflow:visible"
               overflow="visible"
               id="textext-0d179418-7">
              <path
                 inkscape:connector-curvature="0"
                 style="stroke:none"
                 d="m 4.359375,-6.671875 c 0,-0.03125 0.03125,-0.140625 0.03125,-0.140625 0,-0.015625 0,-0.109375 -0.125,-0.109375 -0.09375,0 -0.109375,0.03125 -0.15625,0.203125 L 3.53125,-4.421875 c -1.578125,0.0625 -3.046875,1.375 -3.046875,2.734375 0,0.953125 0.703125,1.734375 1.921875,1.8125 C 2.328125,0.421875 2.25,0.75 2.171875,1.0625 c -0.125,0.46875 -0.21875,0.84375 -0.21875,0.875 0,0.09375 0.078125,0.109375 0.125,0.109375 C 2.125,2.046875 2.140625,2.03125 2.171875,2 2.1875,1.984375 2.25,1.75 2.28125,1.609375 L 2.65625,0.125 c 1.609375,-0.0625 3.0625,-1.40625 3.0625,-2.734375 0,-0.796875 -0.53125,-1.703125 -1.921875,-1.8125 z m -1.90625,6.578125 c -0.59375,-0.03125 -1.3125,-0.390625 -1.3125,-1.375 0,-1.203125 0.859375,-2.59375 2.34375,-2.734375 z m 1.28125,-4.109375 c 0.765625,0.046875 1.328125,0.5 1.328125,1.375 0,1.1875 -0.859375,2.609375 -2.34375,2.734375 z m 0,0"
                 id="path13716" />
            </symbol>
            <symbol
               style="overflow:visible"
               overflow="visible"
               id="textext-0d179418-8">
              <path
                 inkscape:connector-curvature="0"
                 style="stroke:none"
                 d="m 0.875,-0.59375 c -0.03125,0.15625 -0.09375,0.390625 -0.09375,0.4375 0,0.171875 0.140625,0.265625 0.296875,0.265625 0.125,0 0.296875,-0.078125 0.375,-0.28125 0,-0.015625 0.125,-0.484375 0.1875,-0.734375 l 0.21875,-0.890625 C 1.90625,-2.03125 1.96875,-2.25 2.03125,-2.46875 c 0.03125,-0.171875 0.109375,-0.46875 0.125,-0.5 0.140625,-0.3125 0.671875,-1.21875 1.625,-1.21875 0.453125,0 0.53125,0.375 0.53125,0.703125 0,0.609375 -0.484375,1.890625 -0.640625,2.3125 C 3.578125,-0.9375 3.5625,-0.8125 3.5625,-0.703125 c 0,0.46875 0.359375,0.8125 0.828125,0.8125 0.9375,0 1.296875,-1.453125 1.296875,-1.53125 0,-0.109375 -0.078125,-0.109375 -0.109375,-0.109375 -0.109375,0 -0.109375,0.03125 -0.15625,0.1875 -0.203125,0.671875 -0.53125,1.234375 -1.015625,1.234375 -0.171875,0 -0.234375,-0.09375 -0.234375,-0.328125 0,-0.25 0.078125,-0.484375 0.171875,-0.703125 0.1875,-0.53125 0.609375,-1.625 0.609375,-2.203125 0,-0.65625 -0.421875,-1.0625 -1.140625,-1.0625 -0.90625,0 -1.390625,0.640625 -1.5625,0.875 -0.046875,-0.5625 -0.453125,-0.875 -0.921875,-0.875 -0.453125,0 -0.640625,0.390625 -0.734375,0.5625 C 0.421875,-3.5 0.296875,-2.90625 0.296875,-2.875 c 0,0.109375 0.09375,0.109375 0.109375,0.109375 0.109375,0 0.109375,-0.015625 0.171875,-0.234375 0.171875,-0.703125 0.375,-1.1875 0.734375,-1.1875 0.1875,0 0.296875,0.125 0.296875,0.453125 0,0.21875 -0.03125,0.328125 -0.15625,0.84375 z m 0,0"
                 id="path13719" />
            </symbol>
            <symbol
               style="overflow:visible"
               overflow="visible"
               id="textext-0d179418-9">
              <path
                 inkscape:connector-curvature="0"
                 style="stroke:none"
                 d="m 5.140625,-6.8125 c 0,0 0,-0.109375 -0.125,-0.109375 -0.15625,0 -1.09375,0.09375 -1.265625,0.109375 -0.078125,0.015625 -0.140625,0.0625 -0.140625,0.1875 0,0.125 0.09375,0.125 0.234375,0.125 0.484375,0 0.5,0.0625 0.5,0.171875 L 4.3125,-6.125 3.71875,-3.765625 C 3.53125,-4.140625 3.25,-4.40625 2.796875,-4.40625 c -1.15625,0 -2.390625,1.46875 -2.390625,2.921875 0,0.9375 0.546875,1.59375 1.3125,1.59375 0.203125,0 0.703125,-0.046875 1.296875,-0.75 0.078125,0.421875 0.4375,0.75 0.90625,0.75 0.359375,0 0.578125,-0.234375 0.75,-0.546875 0.15625,-0.359375 0.296875,-0.96875 0.296875,-0.984375 0,-0.109375 -0.09375,-0.109375 -0.125,-0.109375 -0.09375,0 -0.109375,0.046875 -0.140625,0.1875 -0.171875,0.640625 -0.34375,1.234375 -0.75,1.234375 -0.28125,0 -0.296875,-0.265625 -0.296875,-0.453125 0,-0.25 0.015625,-0.3125 0.046875,-0.484375 z m -2.0625,5.625 C 3.015625,-1 3.015625,-0.984375 2.875,-0.8125 2.4375,-0.265625 2.03125,-0.109375 1.75,-0.109375 c -0.5,0 -0.640625,-0.546875 -0.640625,-0.9375 0,-0.5 0.3125,-1.71875 0.546875,-2.1875 0.3125,-0.578125 0.75,-0.953125 1.15625,-0.953125 0.640625,0 0.78125,0.8125 0.78125,0.875 0,0.0625 -0.015625,0.125 -0.03125,0.171875 z m 0,0"
                 id="path13722" />
            </symbol>
            <symbol
               style="overflow:visible"
               overflow="visible"
               id="textext-0d179418-10">
              <path
                 inkscape:connector-curvature="0"
                 style="stroke:none"
                 d="m 6.4375,-6.921875 c 0,-0.03125 -0.03125,-0.109375 -0.125,-0.109375 -0.046875,0 -0.046875,0.015625 -0.171875,0.15625 L 5.65625,-6.3125 c -0.25,-0.46875 -0.765625,-0.71875 -1.421875,-0.71875 -1.265625,0 -2.453125,1.15625 -2.453125,2.359375 0,0.796875 0.515625,1.265625 1.03125,1.40625 l 1.0625,0.28125 c 0.375,0.09375 0.921875,0.25 0.921875,1.0625 0,0.890625 -0.8125,1.828125 -1.796875,1.828125 -0.640625,0 -1.75,-0.21875 -1.75,-1.453125 0,-0.234375 0.0625,-0.484375 0.0625,-0.53125 0.015625,-0.046875 0.015625,-0.0625 0.015625,-0.078125 0,-0.09375 -0.0625,-0.109375 -0.109375,-0.109375 -0.046875,0 -0.078125,0.015625 -0.109375,0.046875 -0.03125,0.03125 -0.59375,2.3125 -0.59375,2.34375 0,0.046875 0.046875,0.09375 0.109375,0.09375 0.046875,0 0.0625,-0.015625 0.1875,-0.15625 L 1.296875,-0.5 c 0.421875,0.578125 1.109375,0.71875 1.6875,0.71875 1.359375,0 2.53125,-1.328125 2.53125,-2.5625 0,-0.6875 -0.34375,-1.03125 -0.484375,-1.171875 C 4.796875,-3.734375 4.640625,-3.78125 3.765625,-4 3.53125,-4.0625 3.1875,-4.171875 3.09375,-4.1875 2.828125,-4.28125 2.484375,-4.5625 2.484375,-5.09375 c 0,-0.8125 0.796875,-1.65625 1.75,-1.65625 0.8125,0 1.421875,0.4375 1.421875,1.546875 0,0.3125 -0.03125,0.5 -0.03125,0.5625 0,0 0,0.09375 0.109375,0.09375 0.109375,0 0.125,-0.03125 0.15625,-0.203125 z m 0,0"
                 id="path13725" />
            </symbol>
            <symbol
               style="overflow:visible"
               overflow="visible"
               id="textext-0d179418-11">
              <path
                 inkscape:connector-curvature="0"
                 style="stroke:none"
                 d=""
                 id="path13728" />
            </symbol>
            <symbol
               style="overflow:visible"
               overflow="visible"
               id="textext-0d179418-12">
              <path
                 inkscape:connector-curvature="0"
                 style="stroke:none"
                 d="M 7.375,-6.15625 C 7.4375,-6.28125 7.484375,-6.375 8.203125,-6.375 l 0.1875,0 0,-0.46875 c -0.375,0.015625 -0.859375,0.03125 -1.125,0.03125 -0.390625,0 -0.921875,0 -1.296875,-0.03125 l 0,0.46875 c 0.078125,0 0.875,0 0.875,0.125 0,0.046875 -0.03125,0.09375 -0.046875,0.125 l -2.015625,4.53125 -2.125,-4.78125 0.9375,0 0,-0.46875 c -0.375,0.03125 -1.328125,0.03125 -1.765625,0.03125 -0.375,0 -1.21875,0 -1.5625,-0.03125 l 0,0.46875 0.90625,0 2.75,6.203125 c 0.078125,0.171875 0.125,0.25 0.40625,0.25 0.15625,0 0.28125,0 0.390625,-0.234375 z m 0,0"
                 id="path13731" />
            </symbol>
            <symbol
               style="overflow:visible"
               overflow="visible"
               id="textext-0d179418-13">
              <path
                 inkscape:connector-curvature="0"
                 style="stroke:none"
                 d=""
                 id="path13734" />
            </symbol>
            <symbol
               style="overflow:visible"
               overflow="visible"
               id="textext-0d179418-14">
              <path
                 inkscape:connector-curvature="0"
                 style="stroke:none"
                 d="m 1.90625,-2.5 c 0,-0.28125 -0.234375,-0.515625 -0.515625,-0.515625 -0.296875,0 -0.53125,0.234375 -0.53125,0.515625 0,0.296875 0.234375,0.53125 0.53125,0.53125 0.28125,0 0.515625,-0.234375 0.515625,-0.53125 z m 0,0"
                 id="path13737" />
            </symbol>
            <symbol
               style="overflow:visible"
               overflow="visible"
               id="textext-0d179418-15">
              <path
                 inkscape:connector-curvature="0"
                 style="stroke:none"
                 d=""
                 id="path13740" />
            </symbol>
            <symbol
               style="overflow:visible"
               overflow="visible"
               id="textext-0d179418-16">
              <path
                 inkscape:connector-curvature="0"
                 style="stroke:none"
                 d="M 2.5,-6.921875 1.15625,-5.5625 1.328125,-5.390625 2.5,-6.40625 3.640625,-5.390625 3.8125,-5.5625 Z m 0,0"
                 id="path13743" />
            </symbol>
          </g>
        </defs>
        <g
           id="textext-0d179418-17">
          <g
             style="fill:#000000;fill-opacity:1"
             id="g13746">
            <use
               height="100%"
               width="100%"
               xlink:href="#textext-0d179418-1"
               x="223.43201"
               y="126.739"
               id="use13748" />
          </g>
          <g
             style="fill:#000000;fill-opacity:1"
             id="g13750">
            <use
               height="100%"
               width="100%"
               xlink:href="#textext-0d179418-3"
               x="228.13699"
               y="138.30701"
               id="use13752" />
          </g>
          <g
             style="fill:#000000;fill-opacity:1"
             id="g13754">
            <use
               height="100%"
               width="100%"
               xlink:href="#textext-0d179418-5"
               x="233.41"
               y="138.30701"
               id="use13756" />
          </g>
          <g
             style="fill:#000000;fill-opacity:1"
             id="g13758">
            <use
               height="100%"
               width="100%"
               xlink:href="#textext-0d179418-7"
               x="239.53999"
               y="134.765"
               id="use13760" />
          </g>
          <g
             style="fill:#000000;fill-opacity:1"
             id="g13762">
            <use
               height="100%"
               width="100%"
               xlink:href="#textext-0d179418-12"
               x="245.476"
               y="134.765"
               id="use13764" />
          </g>
          <g
             style="fill:#000000;fill-opacity:1"
             id="g13766">
            <use
               height="100%"
               width="100%"
               xlink:href="#textext-0d179418-14"
               x="256.35199"
               y="134.765"
               id="use13768" />
          </g>
          <g
             style="fill:#000000;fill-opacity:1"
             id="g13770">
            <use
               height="100%"
               width="100%"
               xlink:href="#textext-0d179418-16"
               x="261.832"
               y="134.765"
               id="use13772" />
          </g>
          <g
             style="fill:#000000;fill-opacity:1"
             id="g13774">
            <use
               height="100%"
               width="100%"
               xlink:href="#textext-0d179418-8"
               x="261.33301"
               y="134.765"
               id="use13776" />
            <use
               height="100%"
               width="100%"
               xlink:href="#textext-0d179418-9"
               x="267.31256"
               y="134.765"
               id="use13778" />
            <use
               height="100%"
               width="100%"
               xlink:href="#textext-0d179418-10"
               x="272.49808"
               y="134.765"
               id="use13780" />
          </g>
        </g>
      </g>
      <g
         ns0:text="$\n\\phi_{dx,dz} = \\frac{\\mathrm{property}}{dx \\, dz}\n$"
         ns0:preamble=""
         transform="matrix(1.3185665,0,0,1.3185665,29.83181,185.21531)"
         id="g5465">
        <defs
           id="defs5467">
          <g
             id="g5469">
            <symbol
               overflow="visible"
               id="textext-e4364bcb-0"
               style="overflow:visible">
              <path
                 style="stroke:none"
                 d=""
                 id="path5472"
                 inkscape:connector-curvature="0" />
            </symbol>
            <symbol
               overflow="visible"
               id="textext-e4364bcb-1"
               style="overflow:visible">
              <path
                 style="stroke:none"
                 d="m 4.359375,-6.671875 c 0,-0.03125 0.03125,-0.140625 0.03125,-0.140625 0,-0.015625 0,-0.109375 -0.125,-0.109375 -0.09375,0 -0.109375,0.03125 -0.15625,0.203125 L 3.53125,-4.421875 c -1.578125,0.0625 -3.046875,1.375 -3.046875,2.734375 0,0.953125 0.703125,1.734375 1.921875,1.8125 C 2.328125,0.421875 2.25,0.75 2.171875,1.0625 c -0.125,0.46875 -0.21875,0.84375 -0.21875,0.875 0,0.09375 0.078125,0.109375 0.125,0.109375 C 2.125,2.046875 2.140625,2.03125 2.171875,2 2.1875,1.984375 2.25,1.75 2.28125,1.609375 L 2.65625,0.125 c 1.609375,-0.0625 3.0625,-1.40625 3.0625,-2.734375 0,-0.796875 -0.53125,-1.703125 -1.921875,-1.8125 z m -1.90625,6.578125 c -0.59375,-0.03125 -1.3125,-0.390625 -1.3125,-1.375 0,-1.203125 0.859375,-2.59375 2.34375,-2.734375 z m 1.28125,-4.109375 c 0.765625,0.046875 1.328125,0.5 1.328125,1.375 0,1.1875 -0.859375,2.609375 -2.34375,2.734375 z m 0,0"
                 id="path5475"
                 inkscape:connector-curvature="0" />
            </symbol>
            <symbol
               overflow="visible"
               id="textext-e4364bcb-2"
               style="overflow:visible">
              <path
                 style="stroke:none"
                 d=""
                 id="path5478"
                 inkscape:connector-curvature="0" />
            </symbol>
            <symbol
               overflow="visible"
               id="textext-e4364bcb-3"
               style="overflow:visible">
              <path
                 style="stroke:none"
                 d="M 3.984375,-4.625 C 3.984375,-4.640625 4,-4.734375 4,-4.734375 4,-4.78125 3.984375,-4.84375 3.890625,-4.84375 3.75,-4.84375 3.171875,-4.78125 3,-4.765625 c -0.046875,0 -0.15625,0.015625 -0.15625,0.15625 0,0.09375 0.109375,0.09375 0.1875,0.09375 0.328125,0 0.328125,0.0625 0.328125,0.109375 0,0.046875 0,0.09375 -0.015625,0.15625 L 2.9375,-2.65625 c -0.140625,-0.234375 -0.375,-0.421875 -0.71875,-0.421875 -0.890625,0 -1.796875,0.984375 -1.796875,1.984375 0,0.6875 0.453125,1.15625 1.0625,1.15625 0.375,0 0.703125,-0.203125 0.984375,-0.484375 C 2.59375,0 3,0.0625 3.1875,0.0625 c 0.25,0 0.421875,-0.140625 0.546875,-0.359375 0.15625,-0.28125 0.25,-0.671875 0.25,-0.703125 0,-0.09375 -0.09375,-0.09375 -0.109375,-0.09375 -0.109375,0 -0.109375,0.03125 -0.15625,0.21875 C 3.625,-0.53125 3.5,-0.125 3.203125,-0.125 3.03125,-0.125 2.96875,-0.28125 2.96875,-0.46875 c 0,-0.125 0.015625,-0.1875 0.046875,-0.28125 z M 2.5,-0.875 C 2.453125,-0.671875 2.296875,-0.53125 2.140625,-0.40625 2.078125,-0.34375 1.796875,-0.125 1.5,-0.125 c -0.265625,0 -0.515625,-0.1875 -0.515625,-0.671875 0,-0.375 0.203125,-1.140625 0.375,-1.421875 0.3125,-0.5625 0.671875,-0.65625 0.859375,-0.65625 0.484375,0 0.625,0.53125 0.625,0.609375 0,0.015625 -0.015625,0.078125 -0.015625,0.09375 z m 0,0"
                 id="path5481"
                 inkscape:connector-curvature="0" />
            </symbol>
            <symbol
               overflow="visible"
               id="textext-e4364bcb-4"
               style="overflow:visible">
              <path
                 style="stroke:none"
                 d="M 1.734375,-0.734375 C 1.671875,-0.5 1.4375,-0.125 1.078125,-0.125 c -0.015625,0 -0.234375,0 -0.375,-0.09375 0.28125,-0.09375 0.3125,-0.34375 0.3125,-0.390625 0,-0.15625 -0.125,-0.25 -0.28125,-0.25 -0.203125,0 -0.40625,0.15625 -0.40625,0.421875 0,0.34375 0.390625,0.5 0.734375,0.5 0.328125,0 0.609375,-0.1875 0.78125,-0.484375 C 2.015625,-0.0625 2.390625,0.0625 2.671875,0.0625 c 0.8125,0 1.234375,-0.859375 1.234375,-1.0625 0,-0.09375 -0.09375,-0.09375 -0.109375,-0.09375 -0.109375,0 -0.109375,0.046875 -0.140625,0.125 -0.140625,0.484375 -0.5625,0.84375 -0.953125,0.84375 -0.28125,0 -0.421875,-0.1875 -0.421875,-0.453125 0,-0.1875 0.171875,-0.8125 0.359375,-1.59375 C 2.78125,-2.703125 3.09375,-2.875 3.328125,-2.875 c 0.015625,0 0.21875,0 0.375,0.09375 -0.21875,0.0625 -0.3125,0.265625 -0.3125,0.390625 0,0.140625 0.125,0.25 0.28125,0.25 0.15625,0 0.390625,-0.125 0.390625,-0.421875 0,-0.390625 -0.453125,-0.515625 -0.71875,-0.515625 -0.359375,0 -0.640625,0.234375 -0.78125,0.5 -0.125,-0.28125 -0.453125,-0.5 -0.84375,-0.5 C 0.9375,-3.078125 0.5,-2.21875 0.5,-2 c 0,0.078125 0.09375,0.078125 0.109375,0.078125 0.09375,0 0.09375,-0.015625 0.140625,-0.109375 C 0.921875,-2.578125 1.359375,-2.875 1.703125,-2.875 1.9375,-2.875 2.125,-2.75 2.125,-2.421875 2.125,-2.28125 2.03125,-1.9375 1.96875,-1.6875 Z m 0,0"
                 id="path5484"
                 inkscape:connector-curvature="0" />
            </symbol>
            <symbol
               overflow="visible"
               id="textext-e4364bcb-5"
               style="overflow:visible">
              <path
                 style="stroke:none"
                 d="m 1.46875,-0.109375 c 0,0.375 -0.0625,0.828125 -0.546875,1.265625 C 0.90625,1.1875 0.875,1.21875 0.875,1.25 c 0,0.046875 0.0625,0.09375 0.09375,0.09375 0.109375,0 0.703125,-0.5625 0.703125,-1.390625 0,-0.421875 -0.171875,-0.75 -0.5,-0.75 -0.21875,0 -0.390625,0.171875 -0.390625,0.390625 C 0.78125,-0.1875 0.9375,0 1.1875,0 1.359375,0 1.46875,-0.109375 1.46875,-0.109375 Z m 0,0"
                 id="path5487"
                 inkscape:connector-curvature="0" />
            </symbol>
            <symbol
               overflow="visible"
               id="textext-e4364bcb-6"
               style="overflow:visible">
              <path
                 style="stroke:none"
                 d="m 1.171875,-0.609375 c 0.1875,-0.1875 0.3125,-0.3125 0.890625,-0.796875 0.15625,-0.109375 0.671875,-0.53125 0.875,-0.71875 0.421875,-0.421875 0.6875,-0.78125 0.6875,-0.859375 0,-0.09375 -0.078125,-0.09375 -0.109375,-0.09375 -0.0625,0 -0.09375,0.015625 -0.125,0.078125 -0.21875,0.3125 -0.359375,0.421875 -0.53125,0.421875 -0.078125,0 -0.1875,0 -0.390625,-0.203125 -0.234375,-0.25 -0.390625,-0.296875 -0.546875,-0.296875 -0.5625,0 -0.9375,0.609375 -0.9375,0.8125 0,0.078125 0.0625,0.09375 0.109375,0.09375 0.09375,0 0.109375,-0.015625 0.125,-0.09375 0.109375,-0.25 0.5,-0.265625 0.609375,-0.265625 0.171875,0 0.34375,0.046875 0.4375,0.0625 0.390625,0.078125 0.4375,0.078125 0.609375,0.078125 -0.171875,0.203125 -0.296875,0.328125 -0.96875,0.84375 -0.546875,0.4375 -0.734375,0.609375 -0.859375,0.75 -0.421875,0.40625 -0.625,0.71875 -0.625,0.78125 0,0.078125 0.09375,0.078125 0.125,0.078125 0.0625,0 0.078125,0 0.109375,-0.0625 0.1875,-0.265625 0.40625,-0.421875 0.640625,-0.421875 0.09375,0 0.1875,0 0.375,0.171875 0.21875,0.21875 0.359375,0.3125 0.59375,0.3125 C 3,0.0625 3.46875,-0.78125 3.46875,-1.015625 3.46875,-1.09375 3.390625,-1.09375 3.359375,-1.09375 3.265625,-1.09375 3.25,-1.0625 3.21875,-0.984375 3.09375,-0.640625 2.6875,-0.46875 2.34375,-0.46875 2.1875,-0.46875 2,-0.515625 1.828125,-0.546875 1.515625,-0.625 1.453125,-0.625 1.328125,-0.625 c -0.015625,0 -0.109375,0 -0.15625,0.015625 z m 0,0"
                 id="path5490"
                 inkscape:connector-curvature="0" />
            </symbol>
            <symbol
               overflow="visible"
               id="textext-e4364bcb-7"
               style="overflow:visible">
              <path
                 style="stroke:none"
                 d=""
                 id="path5493"
                 inkscape:connector-curvature="0" />
            </symbol>
            <symbol
               overflow="visible"
               id="textext-e4364bcb-8"
               style="overflow:visible">
              <path
                 style="stroke:none"
                 d="m 6.84375,-3.265625 c 0.15625,0 0.34375,0 0.34375,-0.1875 C 7.1875,-3.65625 7,-3.65625 6.859375,-3.65625 l -5.96875,0 c -0.140625,0 -0.328125,0 -0.328125,0.203125 0,0.1875 0.1875,0.1875 0.328125,0.1875 z m 0.015625,1.9375 c 0.140625,0 0.328125,0 0.328125,-0.203125 0,-0.1875 -0.1875,-0.1875 -0.34375,-0.1875 l -5.953125,0 c -0.140625,0 -0.328125,0 -0.328125,0.1875 0,0.203125 0.1875,0.203125 0.328125,0.203125 z m 0,0"
                 id="path5496"
                 inkscape:connector-curvature="0" />
            </symbol>
            <symbol
               overflow="visible"
               id="textext-e4364bcb-9"
               style="overflow:visible">
              <path
                 style="stroke:none"
                 d=""
                 id="path5499"
                 inkscape:connector-curvature="0" />
            </symbol>
            <symbol
               overflow="visible"
               id="textext-e4364bcb-10"
               style="overflow:visible">
              <path
                 style="stroke:none"
                 d="m 1.9375,1.09375 c -0.453125,0 -0.515625,0 -0.515625,-0.296875 l 0,-1.125 C 1.453125,-0.296875 1.78125,0.0625 2.359375,0.0625 3.28125,0.0625 4.0625,-0.625 4.0625,-1.5 c 0,-0.859375 -0.703125,-1.578125 -1.59375,-1.578125 -0.390625,0 -0.796875,0.15625 -1.078125,0.4375 l 0,-0.4375 L 0.34375,-3 l 0,0.25 c 0.484375,0 0.515625,0.046875 0.515625,0.328125 l 0,3.21875 c 0,0.296875 -0.0625,0.296875 -0.515625,0.296875 l 0,0.265625 c 0.015625,0 0.5,-0.03125 0.796875,-0.03125 0.25,0 0.734375,0.015625 0.796875,0.03125 z M 1.421875,-2.328125 C 1.625,-2.671875 2.03125,-2.84375 2.390625,-2.84375 c 0.59375,0 1.046875,0.609375 1.046875,1.34375 0,0.796875 -0.53125,1.375 -1.109375,1.375 -0.625,0 -0.890625,-0.53125 -0.90625,-0.578125 z m 0,0"
                 id="path5502"
                 inkscape:connector-curvature="0" />
            </symbol>
            <symbol
               overflow="visible"
               id="textext-e4364bcb-11"
               style="overflow:visible">
              <path
                 style="stroke:none"
                 d="m 1.390625,-1.59375 c 0,-0.578125 0.265625,-1.28125 0.9375,-1.28125 -0.0625,0.046875 -0.125,0.140625 -0.125,0.25 0,0.234375 0.1875,0.3125 0.3125,0.3125 0.171875,0 0.328125,-0.109375 0.328125,-0.3125 0,-0.234375 -0.234375,-0.453125 -0.5625,-0.453125 -0.34375,0 -0.734375,0.21875 -0.9375,0.75 l 0,-0.75 -1,0.078125 0,0.25 c 0.46875,0 0.515625,0.046875 0.515625,0.390625 l 0,1.8125 C 0.859375,-0.25 0.796875,-0.25 0.34375,-0.25 l 0,0.25 c 0.03125,0 0.5,-0.03125 0.796875,-0.03125 0.296875,0 0.59375,0.015625 0.90625,0.03125 l 0,-0.25 -0.140625,0 c -0.515625,0 -0.515625,-0.078125 -0.515625,-0.3125 z m 0,0"
                 id="path5505"
                 inkscape:connector-curvature="0" />
            </symbol>
            <symbol
               overflow="visible"
               id="textext-e4364bcb-12"
               style="overflow:visible">
              <path
                 style="stroke:none"
                 d="m 3.6875,-1.484375 c 0,-0.875 -0.75,-1.625 -1.703125,-1.625 -0.96875,0 -1.71875,0.75 -1.71875,1.625 0,0.859375 0.765625,1.546875 1.71875,1.546875 0.9375,0 1.703125,-0.6875 1.703125,-1.546875 z M 1.984375,-0.15625 c -0.265625,0 -0.640625,-0.078125 -0.875,-0.421875 -0.1875,-0.28125 -0.203125,-0.640625 -0.203125,-0.96875 0,-0.296875 0,-0.71875 0.25,-1.015625 0.171875,-0.203125 0.46875,-0.34375 0.828125,-0.34375 0.40625,0 0.703125,0.1875 0.859375,0.40625 0.1875,0.265625 0.203125,0.625 0.203125,0.953125 0,0.328125 -0.015625,0.703125 -0.21875,0.984375 -0.1875,0.265625 -0.5,0.40625 -0.84375,0.40625 z m 0,0"
                 id="path5508"
                 inkscape:connector-curvature="0" />
            </symbol>
            <symbol
               overflow="visible"
               id="textext-e4364bcb-13"
               style="overflow:visible">
              <path
                 style="stroke:none"
                 d="m 3.0625,-1.59375 c 0.15625,0 0.203125,0 0.203125,-0.140625 0,-0.625 -0.34375,-1.375 -1.390625,-1.375 -0.90625,0 -1.609375,0.71875 -1.609375,1.578125 0,0.890625 0.78125,1.59375 1.703125,1.59375 0.9375,0 1.296875,-0.75 1.296875,-0.90625 0,-0.015625 -0.015625,-0.09375 -0.125,-0.09375 -0.09375,0 -0.109375,0.046875 -0.125,0.109375 -0.21875,0.5625 -0.75,0.671875 -1,0.671875 C 1.6875,-0.15625 1.375,-0.296875 1.171875,-0.5625 0.90625,-0.890625 0.90625,-1.3125 0.90625,-1.59375 Z M 0.90625,-1.765625 C 0.984375,-2.75 1.609375,-2.90625 1.875,-2.90625 c 0.859375,0 0.890625,0.96875 0.90625,1.140625 z m 0,0"
                 id="path5511"
                 inkscape:connector-curvature="0" />
            </symbol>
            <symbol
               overflow="visible"
               id="textext-e4364bcb-14"
               style="overflow:visible">
              <path
                 style="stroke:none"
                 d="m 1.40625,-2.75 1.078125,0 0,-0.25 -1.078125,0 0,-1.28125 -0.25,0 c 0,0.625 -0.28125,1.3125 -0.953125,1.328125 l 0,0.203125 0.640625,0 0,1.875 c 0,0.78125 0.59375,0.9375 0.984375,0.9375 0.46875,0 0.78125,-0.390625 0.78125,-0.9375 l 0,-0.390625 -0.234375,0 0,0.375 c 0,0.484375 -0.21875,0.734375 -0.5,0.734375 -0.46875,0 -0.46875,-0.578125 -0.46875,-0.703125 z m 0,0"
                 id="path5514"
                 inkscape:connector-curvature="0" />
            </symbol>
            <symbol
               overflow="visible"
               id="textext-e4364bcb-15"
               style="overflow:visible">
              <path
                 style="stroke:none"
                 d="M 3.296875,-2.328125 C 3.484375,-2.75 3.84375,-2.75 3.953125,-2.75 l 0,-0.25 c -0.1875,0.015625 -0.328125,0.03125 -0.53125,0.03125 -0.1875,0 -0.4375,-0.015625 -0.625,-0.03125 l 0,0.25 c 0.234375,0.015625 0.28125,0.15625 0.28125,0.265625 0,0.078125 -0.03125,0.140625 -0.0625,0.21875 L 2.25,-0.625 1.390625,-2.453125 C 1.359375,-2.5 1.34375,-2.546875 1.34375,-2.59375 1.34375,-2.75 1.578125,-2.75 1.703125,-2.75 l 0,-0.25 C 1.59375,-3 1.09375,-2.96875 0.90625,-2.96875 0.6875,-2.96875 0.421875,-2.984375 0.21875,-3 l 0,0.25 c 0.390625,0 0.46875,0.015625 0.5625,0.234375 L 1.953125,0 c -0.0625,0.140625 -0.125,0.265625 -0.1875,0.40625 -0.15625,0.34375 -0.375,0.8125 -0.859375,0.8125 -0.171875,0 -0.21875,-0.03125 -0.296875,-0.078125 0.015625,0 0.203125,-0.0625 0.203125,-0.296875 0,-0.171875 -0.125,-0.296875 -0.296875,-0.296875 -0.1875,0 -0.3125,0.125 -0.3125,0.296875 0,0.328125 0.328125,0.578125 0.703125,0.578125 0.59375,0 0.9375,-0.625 1.03125,-0.828125 z m 0,0"
                 id="path5517"
                 inkscape:connector-curvature="0" />
            </symbol>
          </g>
        </defs>
        <g
           id="textext-e4364bcb-16">
          <g
             style="fill:#000000;fill-opacity:1"
             id="g5520">
            <use
               xlink:href="#textext-e4364bcb-1"
               x="223.43201"
               y="134.765"
               id="use5522"
               width="100%"
               height="100%" />
          </g>
          <g
             style="fill:#000000;fill-opacity:1"
             id="g5524">
            <use
               xlink:href="#textext-e4364bcb-3"
               x="229.368"
               y="136.259"
               id="use5526"
               width="100%"
               height="100%" />
            <use
               xlink:href="#textext-e4364bcb-4"
               x="233.51532"
               y="136.259"
               id="use5528"
               width="100%"
               height="100%" />
            <use
               xlink:href="#textext-e4364bcb-5"
               x="238.03294"
               y="136.259"
               id="use5530"
               width="100%"
               height="100%" />
            <use
               xlink:href="#textext-e4364bcb-3"
               x="240.39915"
               y="136.259"
               id="use5532"
               width="100%"
               height="100%" />
            <use
               xlink:href="#textext-e4364bcb-6"
               x="244.54648"
               y="136.259"
               id="use5534"
               width="100%"
               height="100%" />
          </g>
          <g
             style="fill:#000000;fill-opacity:1"
             id="g5536">
            <use
               xlink:href="#textext-e4364bcb-8"
               x="251.905"
               y="134.765"
               id="use5538"
               width="100%"
               height="100%" />
          </g>
          <g
             style="fill:#000000;fill-opacity:1"
             id="g5540">
            <use
               xlink:href="#textext-e4364bcb-10"
               x="263.616"
               y="130.32001"
               id="use5542"
               width="100%"
               height="100%" />
            <use
               xlink:href="#textext-e4364bcb-11"
               x="268.01648"
               y="130.32001"
               id="use5544"
               width="100%"
               height="100%" />
            <use
               xlink:href="#textext-e4364bcb-12"
               x="271.12958"
               y="130.32001"
               id="use5546"
               width="100%"
               height="100%" />
            <use
               xlink:href="#textext-e4364bcb-10"
               x="275.10117"
               y="130.32001"
               id="use5548"
               width="100%"
               height="100%" />
          </g>
          <g
             style="fill:#000000;fill-opacity:1"
             id="g5550">
            <use
               xlink:href="#textext-e4364bcb-13"
               x="279.7178"
               y="130.32001"
               id="use5552"
               width="100%"
               height="100%" />
            <use
               xlink:href="#textext-e4364bcb-11"
               x="283.2598"
               y="130.32001"
               id="use5554"
               width="100%"
               height="100%" />
            <use
               xlink:href="#textext-e4364bcb-14"
               x="286.37289"
               y="130.32001"
               id="use5556"
               width="100%"
               height="100%" />
          </g>
          <g
             style="fill:#000000;fill-opacity:1"
             id="g5558">
            <use
               xlink:href="#textext-e4364bcb-15"
               x="289.26981"
               y="130.32001"
               id="use5560"
               width="100%"
               height="100%" />
          </g>
          <path
             style="fill:none;stroke:#000000;stroke-width:0.398;stroke-linecap:butt;stroke-linejoin:miter;stroke-miterlimit:10;stroke-opacity:1"
             d="m 0.0011875,5.625e-4 29.9453125,0"
             transform="matrix(1,0,0,-1,263.616,132.274)"
             id="path5562"
             inkscape:connector-curvature="0" />
          <g
             style="fill:#000000;fill-opacity:1"
             id="g5564">
            <use
               xlink:href="#textext-e4364bcb-3"
               x="269.457"
               y="138.2"
               id="use5566"
               width="100%"
               height="100%" />
            <use
               xlink:href="#textext-e4364bcb-4"
               x="273.60431"
               y="138.2"
               id="use5568"
               width="100%"
               height="100%" />
          </g>
          <g
             style="fill:#000000;fill-opacity:1"
             id="g5570">
            <use
               xlink:href="#textext-e4364bcb-3"
               x="279.48184"
               y="138.2"
               id="use5572"
               width="100%"
               height="100%" />
            <use
               xlink:href="#textext-e4364bcb-6"
               x="283.62915"
               y="138.2"
               id="use5574"
               width="100%"
               height="100%" />
          </g>
        </g>
      </g>
    </g>
  </g>
</svg>
